<?xml version="1.0" encoding="utf-8"?>
<!-- Generator: Adobe Illustrator 18.1.1, SVG Export Plug-In . SVG Version: 6.00 Build 0)  -->
<svg version="1.1" xmlns="http://www.w3.org/2000/svg" xmlns:xlink="http://www.w3.org/1999/xlink" x="0px" y="0px"
	 viewBox="0 0 378 358" enable-background="new 0 0 378 358" xml:space="preserve">
<g id="Image_xA0_2_1_" display="none">
	<g id="Прямоугольник_6" display="inline">
		<g>
			<rect x="4.7" y="4.7" fill="#34C3E7" width="368.6" height="348.6"/>
		</g>
		<g>
			<path fill="#121212" d="M368.6,9.4v339.2H9.4V9.4H368.6 M378,0H0v358h378V0L378,0z"/>
		</g>
	</g>
</g>
<g id="Фигура_6_1_" enable-background="new    ">
	<g id="Фигура_6">
		<g>
			<path fill-rule="evenodd" clip-rule="evenodd" fill="#121212" d="M302.3,124.1c-26.2,0-37.9,10.8-46.4,19.2
				c-3.3,3.3-7,0.5-4.2-3.7c12.7-18.8,24.4-38,24.4-65.2c0-30-20.6-53.4-80.6-53.4c-60,0-76.8,35.6-76.8,52.5
				c0,25.3,6.6,42.2,26.7,56.7c3.3,2.3,0.9,6.1-2.3,4.2c-12.2-7.5-31.9-19.7-50.6-19.7c-31.9,0-54.4,33.7-54.4,75
				c0,41.2,28.1,84.4,65.6,84.4c37.5,0,62.3-29.1,73.1-51.1c1.9-3.7,3.7-7,7-7c2.8,0,3.7,2.8,3.7,6.6c0,24.4-5.9,87.8-34.4,94.8
				c-2.3,0.6-4.6,3.7-2.3,5.2c17.9,11.3,72.6,7,80.9,5.2c10.1-2.2,4.6-7.2,4-7.6c-20.5-11.2-38.3-50.7-38.3-92.9
				c0-3.8,0.9-6.6,3.3-6.6c3.3,0,6.1,4.7,9.4,11.7c9.4,20.2,41.7,51.1,75.4,51.1c34.7,0,65.6-37.5,65.6-88.1
				C351,148.5,330.4,124.1,302.3,124.1z"/>
		</g>
	</g>
</g>
<g id="Image_xA0_4_1_" display="none" enable-background="new    ">
	<g id="Image_xA0_4" display="inline">
		<g>
			<path fill-rule="evenodd" clip-rule="evenodd" fill="#121212" d="M183.7,229.9c-5.6,0-10.4,2-14.2,5.8c-3.9,3.9-5.8,8.6-5.8,14.2
				c0,5.6,1.9,10.4,5.8,14.2c3.9,3.9,8.6,5.8,14.2,5.8c5.3,0,10-2,14-6.1c4-4,6.1-8.7,6.1-14c0-5.9-2-10.7-6.1-14.5
				C193.7,231.8,189,229.9,183.7,229.9z M291.2,74.7C262.1,45.6,226.8,31,185.3,31c-41.2,0-76.4,14.6-105.6,43.7
				C50.6,103.8,36,139.1,36,180.5c0,41.4,14.6,76.7,43.8,105.8c29.2,29.1,64.4,43.7,105.6,43.7c41.4,0,76.8-14.6,105.9-43.7
				c29.2-29.1,43.8-64.4,43.8-105.8C335,139.1,320.4,103.8,291.2,74.7z M202.6,112.2c0,5.4-1.9,10-5.7,13.8
				c-3.8,3.8-8.6,5.6-14.3,5.6c-5.1,0-9.7-1.8-13.6-5.4c-3.9-3.6-5.9-8.3-5.9-14c0-5.1,2-9.6,5.9-13.6c3.9-3.9,8.5-5.9,13.6-5.9
				c5.5,0,10.2,1.8,14.1,5.4C200.6,101.9,202.6,106.5,202.6,112.2z M228.5,297.2c-13.3,8.7-31.6,13.1-54.8,13.1
				c-25.8,0-52.9-9.9-78.7-35c-27.8-27.1-40.5-60.5-40.5-94.8c0-34.3,12.1-64.5,36.4-90.6c25.8-27.6,57.8-41.5,96.1-41.5
				c-13.2,2.3-25.7,8.7-37.4,19.2c-15,13.6-19.8,30-19.8,49.5c0,24.3,9.5,40.6,31.2,53.9c20.4,10.8,43.1,10.8,59.9,22.8
				c21.4,11.3,31.4,34,31.4,53.5C252.3,270,244.4,286.7,228.5,297.2z"/>
		</g>
	</g>
</g>
<g id="Image_xA0_5_1_" display="none" enable-background="new    ">
	<g id="Image_xA0_5" display="inline">
		<g>
			<path fill-rule="evenodd" clip-rule="evenodd" fill="#121212" d="M354,133.6l-110.3-21.2L189.5,14l-54.2,98.4L25,133.6l76.8,82
				L87.8,327l101.7-47.7L291.2,327l-13.9-111.5L354,133.6z M189.7,247.2l-66.1,31l9.1-72.4l-49.9-53.3l71.7-13.8l35.2-63.9
				l35.2,63.9l71.7,13.8l-49.9,53.3l9.1,72.4L189.7,247.2z"/>
		</g>
	</g>
</g>
<g id="Image_xA0_6_1_" display="none" enable-background="new    ">
	<g id="Image_xA0_6" display="inline">
		<g>
			<polygon fill-rule="evenodd" clip-rule="evenodd" fill="#121212" points="354,133.2 244,112.1 190,14 135.9,112.1 26,133.2 
				102.5,214.9 88.7,326 190,278.4 291.3,326 277.5,214.9 			"/>
		</g>
	</g>
</g>
<g id="Image_xA0_7_1_" display="none" enable-background="new    ">
	<g id="Image_xA0_7" display="inline">
		<g>
			<path fill-rule="evenodd" clip-rule="evenodd" fill="#121212" d="M302,131.5V65h-66.5l-47-47l-47,47H75v66.5l-47,47l47,47V292
				h66.5l47,47l47-47H302v-66.5l47-47L302,131.5z M270.2,212.3c0,0,0,30.5,0,47.8c-17.3,0-47.8,0-47.8,0s-21.6,21.6-33.8,33.8
				c-12.2-12.2-33.8-33.8-33.8-33.8s-30.5,0-47.8,0c0-17.3,0-47.8,0-47.8S85.2,190.7,73,178.5c12.2-12.2,33.8-33.8,33.8-33.8
				s0-30.5,0-47.8c17.3,0,47.8,0,47.8,0l9.3-9.3c0,0,12.3-12.3,24.5-24.5c12.2,12.2,33.8,33.8,33.8,33.8s30.5,0,47.8,0
				c0,17.3,0,47.8,0,47.8s21.6,21.6,33.8,33.8C291.7,190.7,270.2,212.3,270.2,212.3z"/>
		</g>
	</g>
</g>
</svg>
