<svg width="172" height="61" viewBox="0 0 172 61" fill="none" xmlns="http://www.w3.org/2000/svg">
  <path d="M18.577 13.3687L26.029 26.3287H16.453L11.629 17.2207H9.25304V26.3287H0.757027V1.12866H9.25304V10.5247H11.845L17.209 1.12866H26.065L18.577 13.3687Z" fill="white"/>
  <path d="M81.5648 1.12866V26.3287H73.2129V7.71666H67.4529L67.3809 10.6327C67.2849 14.2327 66.9969 17.1847 66.5169 19.4887C66.0369 21.7927 65.1968 23.5927 63.9968 24.8887C62.7968 26.1607 61.0809 26.7967 58.8489 26.7967C57.7209 26.7967 56.5209 26.6407 55.2489 26.3287L55.6809 19.5247C55.9929 19.5967 56.3049 19.6327 56.6169 19.6327C57.5049 19.6327 58.1769 19.2727 58.6329 18.5527C59.1129 17.8327 59.4369 16.8727 59.6049 15.6727C59.7729 14.4727 59.8929 12.9007 59.9649 10.9567L60.2889 1.12866H81.5648Z" fill="white"/>
  <path d="M99.5879 8.86866C102.732 8.86866 105.156 9.57666 106.86 10.9927C108.564 12.3847 109.416 14.4487 109.416 17.1847C109.416 20.1367 108.444 22.4047 106.5 23.9887C104.556 25.5487 101.892 26.3287 98.5079 26.3287H86.0159V1.12866H94.3679V8.86866H99.5879ZM97.9319 20.3887C98.7959 20.3887 99.5039 20.1247 100.056 19.5967C100.608 19.0447 100.884 18.2887 100.884 17.3287C100.884 15.6487 99.8999 14.8087 97.9319 14.8087H94.3679V20.3887H97.9319Z" fill="white"/>
  <path d="M140.356 19.7407V31.2607H132.58V26.3287H112.348V1.12866H120.7V19.7407H128.692V1.12866H137.044V19.7407H140.356Z" fill="white"/>
  <path d="M161.351 21.9367H151.775L150.083 26.3287H141.443L152.459 1.12866H160.811L171.827 26.3287H163.043L161.351 21.9367ZM159.011 15.8167L156.563 9.48066L154.115 15.8167H159.011Z" fill="white"/>
  <path d="M111.715 59.3287L111.643 47.8447L106.171 57.0607H102.427L96.9551 48.2407V59.3287H89.2151V34.1287H96.1991L104.407 47.5567L112.399 34.1287H119.383L119.455 59.3287H111.715Z" fill="white"/>
  <path d="M143.067 40.7167H132.231V59.3287H123.879V34.1287H143.067V40.7167Z" fill="white"/>
  <path d="M171.087 34.1287L160.971 53.1007C159.771 55.3567 158.295 57.0727 156.543 58.2487C154.815 59.4247 152.907 60.0127 150.819 60.0127C149.211 60.0127 147.579 59.6767 145.923 59.0047L147.903 52.8847C148.959 53.1727 149.823 53.3167 150.495 53.3167C151.119 53.3167 151.647 53.2087 152.079 52.9927C152.535 52.7767 152.967 52.4167 153.375 51.9127L143.727 34.1287H152.691L157.695 44.7487L162.879 34.1287H171.087Z" fill="white"/>
  <path d="M20.341 46.1593C21.757 46.6633 22.837 47.4193 23.581 48.4273C24.325 49.4113 24.697 50.6233 24.697 52.0633C24.697 54.3193 23.797 56.1073 21.997 57.4273C20.221 58.7233 17.701 59.3713 14.437 59.3713H0.97303V34.1713H13.753C16.873 34.1713 19.285 34.7473 20.989 35.8993C22.717 37.0513 23.581 38.6713 23.581 40.7593C23.581 41.9593 23.293 43.0153 22.717 43.9273C22.165 44.8393 21.373 45.5833 20.341 46.1593ZM9.32504 43.8553H12.925C14.317 43.8553 15.013 43.2433 15.013 42.0193C15.013 40.7473 14.317 40.1113 12.925 40.1113H9.32504V43.8553ZM14.041 53.4313C15.433 53.4313 16.129 52.7593 16.129 51.4153C16.129 50.1193 15.433 49.4713 14.041 49.4713H9.32504V53.4313H14.041Z" fill="#399AC4"/>
  <path d="M50.2269 59.3713L50.1549 47.8873L44.6829 57.1033H40.9389L35.4669 48.2833V59.3713H27.7269V34.1713H34.7109L42.9189 47.5993L50.9109 34.1713H57.895L57.9669 59.3713H50.2269Z" fill="#399AC4"/>
  <path d="M79.9949 46.4113L87.4469 59.3713H77.8709L73.0469 50.2633H70.6709V59.3713H62.175V34.1713H70.6709V43.5673H73.2629L78.6269 34.1713H87.4829L79.9949 46.4113Z" fill="#399AC4"/>
  <path d="M20.341 46.1593C21.757 46.6633 22.837 47.4193 23.581 48.4273C24.325 49.4113 24.697 50.6233 24.697 52.0633C24.697 54.3193 23.797 56.1073 21.997 57.4273C20.221 58.7233 17.701 59.3713 14.437 59.3713H0.97303V34.1713H13.753C16.873 34.1713 19.285 34.7473 20.989 35.8993C22.717 37.0513 23.581 38.6713 23.581 40.7593C23.581 41.9593 23.293 43.0153 22.717 43.9273C22.165 44.8393 21.373 45.5833 20.341 46.1593ZM9.32504 43.8553H12.925C14.317 43.8553 15.013 43.2433 15.013 42.0193C15.013 40.7473 14.317 40.1113 12.925 40.1113H9.32504V43.8553ZM14.041 53.4313C15.433 53.4313 16.129 52.7593 16.129 51.4153C16.129 50.1193 15.433 49.4713 14.041 49.4713H9.32504V53.4313H14.041Z" fill="#399AC4"/>
  <path d="M50.2269 59.3713L50.1549 47.8873L44.6829 57.1033H40.9389L35.4669 48.2833V59.3713H27.7269V34.1713H34.7109L42.9189 47.5993L50.9109 34.1713H57.895L57.9669 59.3713H50.2269Z" fill="#399AC4"/>
  <path d="M79.9949 46.4113L87.4469 59.3713H77.8709L73.0469 50.2633H70.6709V59.3713H62.175V34.1713H70.6709V43.5673H73.2629L78.6269 34.1713H87.4829L79.9949 46.4113Z" fill="#399AC4"/>
  <path fill-rule="evenodd" clip-rule="evenodd" d="M40.1636 27.9343C47.8221 27.9343 54.0305 21.7259 54.0305 14.0674C54.0305 9.5018 50.8875 5.37572 47.9776 1.5557C47.6303 1.0997 47.2863 0.648065 46.9513 0.200562H40.1636H33.1956C33.0683 0.382812 32.9349 0.573019 32.7964 0.770463C30.3431 4.26848 26.2967 10.0378 26.2967 14.0674C26.2967 21.7259 32.5052 27.9343 40.1636 27.9343ZM40.1636 25.5518C46.181 25.5518 51.059 20.6738 51.059 14.6564C51.059 8.63904 46.181 3.761 40.1636 3.761C34.1463 3.761 29.2682 8.63904 29.2682 14.6564C29.2682 20.6738 34.1463 25.5518 40.1636 25.5518Z" fill="white"/>
</svg>