<svg width="27" height="17" viewBox="0 0 27 17" fill="none" xmlns="http://www.w3.org/2000/svg">
<path d="M26.0604 1.72389C26.2435 1.10506 26.0604 0.649597 25.1791 0.649597H22.2632C21.5206 0.649597 21.179 1.0407 20.9958 1.47636C20.9958 1.47636 19.5106 5.0953 17.4115 7.44192C16.7333 8.12017 16.4214 8.338 16.0501 8.338C15.8669 8.338 15.5847 8.12017 15.5847 7.50133V1.72389C15.5847 0.981292 15.3768 0.649597 14.7629 0.649597H10.1786C9.71322 0.649597 9.43599 0.996144 9.43599 1.31794C9.43599 2.02093 10.4855 2.18431 10.5944 4.16458V8.46176C10.5944 9.40239 10.4261 9.57566 10.0548 9.57566C9.06469 9.57566 6.65866 5.94187 5.23286 1.7833C4.94572 0.976342 4.66354 0.649597 3.91598 0.649597H1.00004C0.168323 0.649597 0 1.0407 0 1.47636C0 2.24867 0.990135 6.08544 4.60908 11.1549C7.02006 14.6155 10.4162 16.4918 13.5054 16.4918C15.3619 16.4918 15.5897 16.0759 15.5897 15.3581C15.5897 12.051 15.4214 11.7391 16.3521 11.7391C16.7828 11.7391 17.5254 11.9569 19.2581 13.6253C21.2384 15.6056 21.5651 16.4918 22.6741 16.4918H25.59C26.4218 16.4918 26.8426 16.0759 26.6 15.2541C26.0455 13.5263 22.2978 9.97172 22.1295 9.73409C21.6988 9.17961 21.8226 8.93208 22.1295 8.43701C22.1345 8.43206 25.694 3.42198 26.0604 1.72389Z" fill="#838383"/>
</svg>
